<svg xmlns="http://www.w3.org/2000/svg" xmlns:xlink="http://www.w3.org/1999/xlink"><symbol id="advantages-food-icon" viewBox="0 0 75 70"><g fill="none">
<path d="M70.5757 46.7H4.6103C2.30452 46.7 0.5 48.6 0.5 51V54.5C0.5 56.9 2.40477 58.8 4.6103 58.8H5.51257V59.9C5.51257 65.4 9.82337 70 15.1367 70H59.8488C65.1621 70 69.4729 65.5 69.4729 59.9V58.8H70.3752C72.681 58.8 74.4855 56.9 74.4855 54.5V51C74.686 48.7 72.7812 46.7 70.5757 46.7ZM66.6659 59.9C66.6659 63.8 63.6583 66.9 59.949 66.9H15.1367C11.4274 66.9 8.41985 63.7 8.41985 59.9V58.8H66.6659V59.9ZM71.7787 54.5C71.7787 55.2 71.1772 55.8 70.5757 55.8H4.51005C3.80829 55.8 3.30704 55.2 3.30704 54.5V51C3.30704 50.3 3.90855 49.7 4.51005 49.7H70.4754C71.1772 49.7 71.6784 50.3 71.6784 51C71.7787 51 71.7787 54.5 71.7787 54.5Z" fill="#83B3D3"/>
<path d="M16.1392 38.4L21.5528 42.5L26.8661 38.4L32.1794 42.5L37.4927 38.4L42.9063 42.5L48.2196 38.4L53.5329 42.5L58.9465 38.4L64.2598 42.5L70.4754 37.8L68.7711 35.3L64.2598 38.7L58.9465 34.6L53.5329 38.7L48.2196 34.6L42.9063 38.7L37.4927 34.6L32.1794 38.7L26.8661 34.6L21.5528 38.7L16.1392 34.6L10.8259 38.7L6.31458 35.3L4.6103 37.8L10.8259 42.5L16.1392 38.4Z" fill="#83B3D3"/>
<path d="M8.52011 31.5H69.4729C69.4729 30.9 69.5732 30.3 69.5732 29.6C69.5732 29.2 69.5732 28.8 69.5732 28.4C68.8714 12.7 54.8362 0 37.593 0C20.2495 0 6.21432 12.7 5.51257 28.5C5.51257 28.9 5.51257 29.3 5.51257 29.7C5.51257 30.3 5.50815 30.9 5.6084 31.5H8.52011ZM37.593 3C53.2322 3 66.0644 14.3 66.6659 28.5H8.52011C9.12161 14.4 21.9538 3 37.593 3Z" fill="#83B3D3"/>
<path d="M37.593 17.3C38.645 17.3 39.4978 16.4046 39.4978 15.3C39.4978 14.1954 38.645 13.3 37.593 13.3C36.541 13.3 35.6882 14.1954 35.6882 15.3C35.6882 16.4046 36.541 17.3 37.593 17.3Z" fill="#83B3D3"/>
<path d="M29.7734 12.2C30.8254 12.2 31.6782 11.3046 31.6782 10.2C31.6782 9.09543 30.8254 8.2 29.7734 8.2C28.7214 8.2 27.8686 9.09543 27.8686 10.2C27.8686 11.3046 28.7214 12.2 29.7734 12.2Z" fill="#83B3D3"/>
<path d="M45.3123 12.2C46.3643 12.2 47.2171 11.3046 47.2171 10.2C47.2171 9.09543 46.3643 8.2 45.3123 8.2C44.2604 8.2 43.4076 9.09543 43.4076 10.2C43.4076 11.3046 44.2604 12.2 45.3123 12.2Z" fill="#83B3D3"/>
</g></symbol><symbol id="advantages-housing-icon" viewBox="0 0 76 72"><g fill="none">
<path d="M30.1185 65H46.1827V41.2H30.1185V65ZM33.0301 44.1H43.1707V62.1H33.0301V44.1Z" fill="#83B3D3"/>
<path d="M73.3916 39.3L75.5 37.2L65.5602 27.3V0H51.6044V13.6L37.9498 0L0.5 37.2L2.60843 39.3L10.4398 31.5V69.1H6.42369V72H70.5803V69.1H65.4598V31.5L73.3916 39.3ZM62.5482 69.1H13.3514V28.5L37.9498 4.1L62.5482 28.5V69.1ZM62.5482 24.4L54.6165 16.5V2.9H62.5482V24.4Z" fill="#83B3D3"/>
<path d="M30.3193 27.1C30.3193 31.4 33.8333 34.8 38.0502 34.8C42.3675 34.8 45.8815 31.3 45.8815 27.1C45.8815 22.8 42.3675 19.4 38.0502 19.4C33.8333 19.4 30.3193 22.8 30.3193 27.1ZM38.1506 22.1C40.8614 22.1 43.1707 24.3 43.1707 27C43.1707 29.7 40.9618 31.9 38.1506 31.9C35.4398 31.9 33.1305 29.7 33.1305 27C33.1305 24.3 35.3394 22.1 38.1506 22.1Z" fill="#83B3D3"/>
<path d="M20.4799 41.2H17.4679V45.1H20.4799V41.2Z" fill="#83B3D3"/>
<path d="M26.4036 41.2H23.3916V45.1H26.4036V41.2Z" fill="#83B3D3"/>
<path d="M20.4799 47.2H17.4679V51.1H20.4799V47.2Z" fill="#83B3D3"/>
<path d="M26.4036 47.2H23.3916V51.1H26.4036V47.2Z" fill="#83B3D3"/>
<path d="M52.508 41.2H49.496V45.1H52.508V41.2Z" fill="#83B3D3"/>
<path d="M58.4317 41.2H55.4197V45.1H58.4317V41.2Z" fill="#83B3D3"/>
<path d="M52.508 47.2H49.496V51.1H52.508V47.2Z" fill="#83B3D3"/>
<path d="M58.4317 47.2H55.4197V51.1H58.4317V47.2Z" fill="#83B3D3"/>
</g></symbol><symbol id="advantages-souvenir-icon" viewBox="0 0 65 76"><g fill="none">
<path d="M61.6 22.4625H61.5H36.8C50.6 15.5576 51.7 11.1546 51.2 8.75288C50 4.75007 45.5 1.74797 41.2 3.34909C35.6 5.45056 34.1 13.7564 32.6 19.7606C30.6 13.6563 28.8 5.95091 24.4 2.04818C23.1 0.947407 21.3 -0.253434 18.6 0.0467764C14.6 0.447057 8.8 5.45056 11.1 11.0545C13.4 16.4583 20.8 19.8607 25.7 22.5626H3.7H3.4C1.8 22.5626 0.5 23.8635 0.5 25.4646V36.7725C0.5 38.3736 1.8 39.6745 3.4 39.6745H3.7V72.9979V75.3996V76H61.5V75.4996V72.9979V39.5745H61.6C63.2 39.5745 64.5 38.2736 64.5 36.6724V25.3645C64.5 23.7634 63.2 22.4625 61.6 22.4625ZM42.9 5.85084C45 5.55063 47.9 7.15176 48.2 9.05309C48.6 11.8551 44.8 14.3568 43.1 15.4576C40.6 17.1588 38.2 18.0594 35.8 19.5604C36.7 15.8579 38.3 6.55133 42.9 5.85084ZM20 15.8579C17.8 14.3568 13.5 11.4548 13.6 8.05239C13.7 4.44986 19.3 1.44776 22.4 4.14965C26.3 7.55203 28.1 15.2574 29.5 20.7613C26.3 19.2602 23.2 17.9593 20 15.8579ZM26 72.9979H6.6V39.5745H26V72.9979ZM26 36.4723H3.5V25.4646H26V36.4723ZM36.2 36.4723V39.4744V72.9979H29V39.5745V36.5724V25.5647H36.2V36.4723ZM58.5 72.9979H39.1V39.5745H58.5V72.9979ZM61.4 36.4723H39.1V25.4646H61.4V36.4723Z" fill="#83B3D3"/>
</g></symbol><symbol id="header-fovourites-icon" viewBox="0 0 18 17"><g fill="none">
<path d="M8.9 17C8.6 17 8.3 16.9 8.1 16.6C2.7 10.5 1.4 9.1 1.1 8.7C0.4 7.8 0 6.6 0 5.4C0 2.4 2.4 0 5.5 0C6.8 0 8 0.5 9 1.3C10 0.5 11.3 0 12.5 0C15.5 0 18 2.4 18 5.4C18 6.7 17.5 7.9 16.7 8.8L9.7 16.7C9.5 16.9 9.3 17 8.9 17ZM2.9 7.5C3.2 7.9 6.4 11.5 9 14.4L15.2 7.4C15.7 6.9 15.9 6.2 15.9 5.4C15.9 3.6 14.4 2.1 12.6 2.1C11.6 2.1 10.6 2.6 9.9 3.4C9.6 3.7 9.3 3.8 9 3.8C8.7 3.8 8.4 3.6 8.2 3.4C7.5 2.6 6.5 2.1 5.5 2.1C3.7 2.1 2.2 3.6 2.2 5.4C2.1 6.3 2.5 7 2.9 7.5C2.8 7.5 2.8 7.5 2.9 7.5Z" fill="black"/>
</g></symbol><symbol id="header-search-icon" viewBox="0 0 19 19"><g fill="none">
<path d="M18.5 17.0083L14.8 13.3287C15.8 12.0359 16.5 10.3453 16.5 8.4558C16.5 4.08011 12.9 0.5 8.5 0.5C4.1 0.5 0.5 4.17956 0.5 8.55525C0.5 12.9309 4.1 16.511 8.5 16.511C10.3 16.511 12 15.9144 13.4 14.8204L17.1 18.5L18.5 17.0083ZM8.5 14.5221C5.2 14.5221 2.5 11.837 2.5 8.55525C2.5 5.27348 5.2 2.5884 8.5 2.5884C11.8 2.5884 14.5 5.27348 14.5 8.55525C14.5 11.837 11.8 14.5221 8.5 14.5221Z" fill="black"/>
</g></symbol></svg>